<svg xmlns="http://www.w3.org/2000/svg" viewBox="0 0 256 256">
  <circle cx="128" cy="128" r="120" fill="#1686c3"/>
  <g fill="#56b1e2" opacity="0.9">
    <circle cx="58" cy="62" r="4"/><circle cx="70" cy="56" r="4"/><circle cx="82" cy="60" r="4"/><circle cx="94" cy="56" r="4"/>
    <circle cx="50" cy="74" r="4"/><circle cx="62" cy="72" r="4"/><circle cx="74" cy="72" r="4"/><circle cx="86" cy="74" r="4"/>
    <circle cx="38" cy="86" r="4"/><circle cx="50" cy="84" r="4"/><circle cx="62" cy="86" r="4"/><circle cx="74" cy="88" r="4"/>
    <circle cx="194" cy="160" r="4"/><circle cx="206" cy="154" r="4"/><circle cx="218" cy="160" r="4"/>
    <circle cx="182" cy="172" r="4"/><circle cx="194" cy="172" r="4"/><circle cx="206" cy="174" r="4"/><circle cx="218" cy="178" r="4"/>
    <circle cx="170" cy="186" r="4"/><circle cx="182" cy="188" r="4"/><circle cx="194" cy="190" r="4"/><circle cx="206" cy="192" r="4"/><circle cx="218" cy="194" r="4"/>
    <circle cx="110" cy="34" r="3.5"/><circle cx="121" cy="34" r="3.5"/><circle cx="132" cy="34" r="3.5"/>
    <circle cx="98" cy="46" r="3.5"/><circle cx="109" cy="46" r="3.5"/><circle cx="120" cy="46" r="3.5"/><circle cx="131" cy="46" r="3.5"/><circle cx="142" cy="46" r="3.5"/>
    <circle cx="170" cy="44" r="3.5"/>
    <circle cx="100" cy="214" r="4"/><circle cx="112" cy="214" r="4"/><circle cx="124" cy="214" r="4"/><circle cx="136" cy="214" r="4"/>
    <circle cx="106" cy="226" r="4"/><circle cx="118" cy="226" r="4"/><circle cx="130" cy="226" r="4"/>
  </g>
  <g fill="none" stroke="#f3f4f6" stroke-width="14" stroke-linecap="round" stroke-linejoin="round">
    <circle cx="66" cy="128" r="24"/>
    <circle cx="128" cy="128" r="44"/>
    <circle cx="190" cy="128" r="24"/>
  </g>
</svg>
